<svg width="240" height="32" viewBox="0 0 240 32" fill="none" xmlns="http://www.w3.org/2000/svg">
<path d="M16.9318 0.590907L3.32955 31.9375H0.568182L14.1705 0.590907H16.9318ZM29.7639 0.590907L16.1616 31.9375H13.4002L27.0025 0.590907H29.7639ZM63.3572 10H60.2379C60.2038 9.08807 60.0163 8.28693 59.6754 7.59659C59.3345 6.90625 58.8743 6.3267 58.2947 5.85795C57.7237 5.38068 57.0675 5.02273 56.326 4.78409C55.5845 4.54545 54.7919 4.42614 53.9482 4.42614C52.3288 4.42614 50.7947 4.83949 49.3459 5.66619C47.897 6.48437 46.657 7.69034 45.6257 9.28409C44.5945 10.8693 43.8913 12.8125 43.5163 15.1136C43.1413 17.3466 43.1967 19.2259 43.6825 20.7514C44.1683 22.277 44.9737 23.4318 46.0987 24.2159C47.2237 25 48.5618 25.392 50.1129 25.392C51.0078 25.392 51.8857 25.2727 52.7464 25.0341C53.6158 24.7955 54.4254 24.4418 55.1754 23.973C55.9339 23.4957 56.6072 22.9119 57.1953 22.2216C57.7919 21.5227 58.2607 20.7216 58.6016 19.8182H61.772C61.3033 21.1562 60.6683 22.3537 59.8672 23.4105C59.0746 24.4673 58.1584 25.3665 57.1186 26.108C56.0788 26.8409 54.9581 27.3991 53.7564 27.7827C52.5547 28.1662 51.3061 28.358 50.0107 28.358C47.7436 28.358 45.8132 27.804 44.2195 26.696C42.6342 25.5795 41.5007 24.0028 40.8189 21.9659C40.1456 19.9205 40.0391 17.5 40.4993 14.7045C40.9595 11.9773 41.8416 9.625 43.1456 7.64773C44.4496 5.66193 46.0476 4.13636 47.9396 3.07102C49.8317 1.99716 51.8857 1.46023 54.1016 1.46023C55.4311 1.46023 56.6541 1.65199 57.7706 2.03551C58.8871 2.41903 59.8587 2.98153 60.6854 3.72301C61.5121 4.45596 62.1555 5.35085 62.6158 6.40767C63.0845 7.45596 63.3317 8.65341 63.3572 10ZM73.2106 28.4091C71.4038 28.4091 69.891 27.9787 68.6722 27.1179C67.4535 26.2571 66.5927 25.0511 66.0898 23.5C65.5955 21.9489 65.5146 20.142 65.8469 18.0795C66.1708 16.0682 66.8143 14.3168 67.7773 12.8253C68.7489 11.3253 69.9549 10.1662 71.3952 9.34801C72.8441 8.52131 74.4379 8.10795 76.1765 8.10795C77.9833 8.10795 79.4918 8.54261 80.7021 9.41193C81.9208 10.2727 82.7816 11.483 83.2844 13.0426C83.7873 14.5937 83.8725 16.4091 83.5401 18.4886C83.2163 20.483 82.5643 22.2259 81.5842 23.7173C80.6126 25.2003 79.4066 26.3551 77.9663 27.1818C76.5344 28 74.9492 28.4091 73.2106 28.4091ZM73.2617 25.6989C74.6424 25.6989 75.8398 25.3452 76.854 24.6378C77.8768 23.9304 78.7035 22.9972 79.3342 21.8381C79.9734 20.679 80.4038 19.4261 80.6254 18.0795C80.8299 16.8011 80.8214 15.6122 80.5998 14.5128C80.3782 13.4048 79.9052 12.5142 79.1808 11.8409C78.4563 11.1591 77.4379 10.8182 76.1254 10.8182C74.7447 10.8182 73.5387 11.1761 72.5075 11.892C71.4847 12.608 70.658 13.5497 70.0273 14.7173C69.3967 15.8849 68.9748 17.142 68.7617 18.4886C68.5572 19.767 68.5614 20.956 68.7745 22.0554C68.9961 23.1463 69.4691 24.0284 70.1935 24.7017C70.9265 25.3665 71.9492 25.6989 73.2617 25.6989ZM93.9751 28.4091C92.3303 28.4091 90.9496 27.9957 89.8331 27.169C88.7166 26.3338 87.9283 25.1577 87.468 23.6406C87.0163 22.1151 86.9609 20.3125 87.3018 18.233C87.6513 16.1705 88.3033 14.3807 89.2578 12.8636C90.2209 11.3466 91.4013 10.1747 92.799 9.34801C94.1967 8.52131 95.7223 8.10795 97.3757 8.10795C98.6541 8.10795 99.63 8.32102 100.303 8.74716C100.985 9.16477 101.479 9.64205 101.786 10.179C102.093 10.7074 102.327 11.142 102.489 11.483H102.745L104.356 1.81818H107.373L103.026 28H100.112L100.623 24.983H100.265C99.9837 25.3409 99.5916 25.7926 99.0888 26.3381C98.5859 26.875 97.9212 27.3565 97.0945 27.7827C96.2763 28.2003 95.2365 28.4091 93.9751 28.4091ZM94.7166 25.6989C95.9268 25.6989 97.0092 25.3835 97.9638 24.7528C98.9268 24.1136 99.728 23.2315 100.367 22.1065C101.006 20.973 101.45 19.6648 101.697 18.1818C101.944 16.7159 101.935 15.4332 101.671 14.3338C101.407 13.2259 100.9 12.3651 100.15 11.7514C99.3999 11.1293 98.407 10.8182 97.1712 10.8182C95.9013 10.8182 94.7976 11.1463 93.8601 11.8026C92.9226 12.4503 92.1598 13.3324 91.5717 14.4489C90.9837 15.5568 90.5746 16.8011 90.3445 18.1818C90.1143 19.5795 90.1101 20.8494 90.3317 21.9915C90.5533 23.125 91.022 24.0284 91.7379 24.7017C92.4624 25.3665 93.4553 25.6989 94.7166 25.6989ZM117.127 28.4091C115.244 28.4091 113.688 27.9915 112.461 27.1562C111.234 26.3125 110.377 25.1364 109.891 23.6278C109.406 22.1108 109.329 20.3466 109.661 18.3352C109.994 16.3239 110.654 14.5511 111.643 13.017C112.631 11.4744 113.863 10.2727 115.337 9.41193C116.812 8.54261 118.431 8.10795 120.195 8.10795C121.218 8.10795 122.202 8.27841 123.148 8.61932C124.094 8.96023 124.913 9.5142 125.603 10.2812C126.293 11.0398 126.775 12.0455 127.048 13.2983C127.32 14.5511 127.303 16.0937 126.996 17.9261L126.792 19.2045H111.656L112.065 16.5966H124.133C124.329 15.4886 124.278 14.5 123.979 13.6307C123.69 12.7614 123.183 12.0753 122.458 11.5724C121.742 11.0696 120.835 10.8182 119.735 10.8182C118.602 10.8182 117.545 11.125 116.565 11.7386C115.585 12.3437 114.766 13.1108 114.11 14.0398C113.454 14.9602 113.045 15.8977 112.883 16.8523L112.525 19.1023C112.269 20.7301 112.308 22.0256 112.64 22.9886C112.981 23.9517 113.573 24.6463 114.417 25.0724C115.261 25.4901 116.317 25.6989 117.587 25.6989C118.397 25.6989 119.143 25.5881 119.825 25.3665C120.506 25.1364 121.116 24.7955 121.653 24.3438C122.19 23.8835 122.641 23.3125 123.008 22.6307L125.769 23.4489C125.3 24.4375 124.64 25.3068 123.788 26.0568C122.944 26.7983 121.955 27.3778 120.822 27.7955C119.697 28.2045 118.465 28.4091 117.127 28.4091ZM132.526 28.2045C131.878 28.2045 131.337 27.983 130.902 27.5398C130.467 27.0881 130.241 26.5426 130.224 25.9034C130.216 25.2642 130.442 24.7315 130.902 24.3054C131.362 23.8707 131.903 23.6534 132.526 23.6534C133.156 23.6534 133.702 23.875 134.162 24.3182C134.622 24.7614 134.844 25.2898 134.827 25.9034C134.818 26.3295 134.707 26.7173 134.494 27.0668C134.29 27.4162 134.013 27.6932 133.663 27.8977C133.322 28.1023 132.943 28.2045 132.526 28.2045ZM147.988 28.4091C146.181 28.4091 144.668 27.9787 143.45 27.1179C142.231 26.2571 141.37 25.0511 140.867 23.5C140.373 21.9489 140.292 20.142 140.624 18.0795C140.948 16.0682 141.592 14.3168 142.555 12.8253C143.526 11.3253 144.732 10.1662 146.173 9.34801C147.621 8.52131 149.215 8.10795 150.954 8.10795C152.761 8.10795 154.269 8.54261 155.479 9.41193C156.698 10.2727 157.559 11.483 158.062 13.0426C158.565 14.5937 158.65 16.4091 158.317 18.4886C157.994 20.483 157.342 22.2259 156.362 23.7173C155.39 25.2003 154.184 26.3551 152.744 27.1818C151.312 28 149.727 28.4091 147.988 28.4091ZM148.039 25.6989C149.42 25.6989 150.617 25.3452 151.631 24.6378C152.654 23.9304 153.481 22.9972 154.112 21.8381C154.751 20.679 155.181 19.4261 155.403 18.0795C155.607 16.8011 155.599 15.6122 155.377 14.5128C155.156 13.4048 154.683 12.5142 153.958 11.8409C153.234 11.1591 152.215 10.8182 150.903 10.8182C149.522 10.8182 148.316 11.1761 147.285 11.892C146.262 12.608 145.435 13.5497 144.805 14.7173C144.174 15.8849 143.752 17.142 143.539 18.4886C143.335 19.767 143.339 20.956 143.552 22.0554C143.773 23.1463 144.246 24.0284 144.971 24.7017C145.704 25.3665 146.727 25.6989 148.039 25.6989ZM166.324 16.1875L164.38 28H161.363L164.636 8.36364H167.551L167.039 11.4318H167.295C167.909 10.4347 168.74 9.63352 169.788 9.02841C170.836 8.41477 172.102 8.10795 173.585 8.10795C174.897 8.10795 176.005 8.38068 176.909 8.92614C177.821 9.46307 178.464 10.2812 178.839 11.3807C179.223 12.4716 179.278 13.8523 179.005 15.5227L176.909 28H173.892L175.937 15.7273C176.193 14.1932 175.993 12.9915 175.336 12.1222C174.689 11.2528 173.662 10.8182 172.255 10.8182C171.284 10.8182 170.385 11.027 169.558 11.4446C168.74 11.8622 168.045 12.4716 167.474 13.2727C166.912 14.0739 166.528 15.0455 166.324 16.1875ZM189.786 1.81818L185.439 28H182.422L186.768 1.81818H189.786ZM190.965 28L194.238 8.36364H197.255L193.982 28H190.965ZM196.667 5.03977C196.078 5.03977 195.571 4.83949 195.145 4.43892C194.728 4.03835 194.519 3.55682 194.519 2.99432C194.519 2.43182 194.728 1.95028 195.145 1.54972C195.571 1.14915 196.078 0.948862 196.667 0.948862C197.255 0.948862 197.757 1.14915 198.175 1.54972C198.601 1.95028 198.814 2.43182 198.814 2.99432C198.814 3.55682 198.601 4.03835 198.175 4.43892C197.757 4.83949 197.255 5.03977 196.667 5.03977ZM204.468 16.1875L202.525 28H199.508L202.781 8.36364H205.695L205.184 11.4318H205.44C206.053 10.4347 206.884 9.63352 207.933 9.02841C208.981 8.41477 210.246 8.10795 211.729 8.10795C213.042 8.10795 214.15 8.38068 215.053 8.92614C215.965 9.46307 216.609 10.2812 216.984 11.3807C217.367 12.4716 217.423 13.8523 217.15 15.5227L215.053 28H212.036L214.082 15.7273C214.337 14.1932 214.137 12.9915 213.481 12.1222C212.833 11.2528 211.806 10.8182 210.4 10.8182C209.428 10.8182 208.529 11.027 207.702 11.4446C206.884 11.8622 206.19 12.4716 205.619 13.2727C205.056 14.0739 204.673 15.0455 204.468 16.1875ZM228.748 28.4091C226.865 28.4091 225.309 27.9915 224.082 27.1562C222.855 26.3125 221.998 25.1364 221.512 23.6278C221.027 22.1108 220.95 20.3466 221.282 18.3352C221.615 16.3239 222.275 14.5511 223.264 13.017C224.252 11.4744 225.484 10.2727 226.958 9.41193C228.433 8.54261 230.052 8.10795 231.816 8.10795C232.839 8.10795 233.824 8.27841 234.77 8.61932C235.716 8.96023 236.534 9.5142 237.224 10.2812C237.914 11.0398 238.396 12.0455 238.669 13.2983C238.941 14.5511 238.924 16.0937 238.618 17.9261L238.413 19.2045H223.277L223.686 16.5966H235.754C235.95 15.4886 235.899 14.5 235.6 13.6307C235.311 12.7614 234.804 12.0753 234.079 11.5724C233.363 11.0696 232.456 10.8182 231.356 10.8182C230.223 10.8182 229.166 11.125 228.186 11.7386C227.206 12.3437 226.387 13.1108 225.731 14.0398C225.075 14.9602 224.666 15.8977 224.504 16.8523L224.146 19.1023C223.89 20.7301 223.929 22.0256 224.261 22.9886C224.602 23.9517 225.194 24.6463 226.038 25.0724C226.882 25.4901 227.939 25.6989 229.208 25.6989C230.018 25.6989 230.764 25.5881 231.446 25.3665C232.127 25.1364 232.737 24.7955 233.274 24.3438C233.811 23.8835 234.262 23.3125 234.629 22.6307L237.39 23.4489C236.922 24.4375 236.261 25.3068 235.409 26.0568C234.565 26.7983 233.576 27.3778 232.443 27.7955C231.318 28.2045 230.086 28.4091 228.748 28.4091Z" fill="white"/>
</svg>
