<svg width="18" height="20" viewBox="0 0 18 20" fill="none" xmlns="http://www.w3.org/2000/svg">
<path d="M8.99996 8.2C10.9882 8.2 12.6 6.58822 12.6 4.6C12.6 2.61177 10.9882 1 8.99996 1C7.01174 1 5.39996 2.61177 5.39996 4.6C5.39996 6.58822 7.01174 8.2 8.99996 8.2Z" stroke="white" stroke-width="2"/>
<path d="M16.1977 15.5333C16.2 15.391 16.2 15.2465 16.2 15.1C16.2 12.9461 12.9765 11.2 8.99999 11.2C5.02354 11.2 1.79999 12.9461 1.79999 15.1C1.79999 17.2539 1.79999 19 8.99999 19C11.0079 19 12.4558 18.8642 13.5 18.6216" stroke="white" stroke-width="2" stroke-linecap="round"/>
</svg>
